<?xml version="1.0" encoding="UTF-8"?>
<svg xmlns="http://www.w3.org/2000/svg" version="1.1" viewBox="0 0 4000 4500">
  <defs>
    <style>
      .cls-1 {
        fill: #274c77;
      }

      .cls-2 {
        fill: #fefefe;
      }
    </style>
  </defs>
  <!-- Generator: Adobe Illustrator 28.6.0, SVG Export Plug-In . SVG Version: 1.2.0 Build 709)  -->
  <g>
    <g id="Layer_1">
      <g>
        <path class="cls-2" d="M210.6,2342.8c0-568.3.1-1136.6-.6-1704.9,0-22.2,2.4-29.1,27.5-29.1,1137.8.8,2275.6.8,3413.4.2,22,0,26.3,5.4,26.3,26.7-.6,1137.8-.6,2275.6.3,3413.4,0,25.8-7.9,27.2-29.5,27.1-1136.6-.6-2273.3-.6-3409.9.2-24,0-28.2-5.2-28.2-28.5.8-568.3.6-1136.6.6-1704.9Z"/>
        <path class="cls-1" d="M1948.1,3826.5c-292.8,0-585.6,0-878.4,0-42.2,0-52.2-7.9-51.6-49,1.9-152-7.5-304.4,9.2-456,28.9-264.1,164.3-463.5,377.4-615.3,25.8-18.4,32,2,40,17.3,52.2,98.5,109.3,194.2,166.1,290,21.6,36.5,36.1,39.5,71.9,15.2,80.8-55,162.2-109.3,241.8-165.9,18.9-13.4,30.8-11.3,48,.3,79.2,53.4,159.4,105.4,238.9,158.3,50.5,33.6,59.5,31.7,89.7-21.1,51.4-89.9,99.4-181.5,143.9-275,13.2-27.8,24.9-29,48.4-12.7,192,133.5,322.3,308.1,366.5,541.8,22.7,119.8,19.7,240.6,20.4,361.5.3,50.7.2,101.4,0,152.2-.2,50.6-7.9,58.4-57.1,58.4-291.7,0-583.3,0-875,0Z"/>
        <path class="cls-1" d="M1943,2528.9c-70.3,0-140.7.3-211-.1-37.3-.2-47.2-10.1-48.5-46.9-.4-12.7-.4-25.4-.2-38,1.1-53.2-14.2-97-56.7-134.1-94-81.9-163.6-180.5-187-306.2-71-383,231.6-635.6,533.3-614.8,220.2,15.1,413.4,158.4,466.1,370.7,50,201.3,5.3,380.3-149.4,525.7-5.9,5.5-11.1,12-17.8,16.4-55.9,36.2-69.7,91.1-68.7,152.8.2,11.5-.5,23-.8,34.6-.7,27-14.5,39.3-41.5,39.1-72.6-.4-145.3-.1-217.9-.1,0,.4,0,.8,0,1.1Z"/>
        <path class="cls-1" d="M1394.4,2400.3c1.8,26.7-9,46.7-26,63.3-66.8,65.2-137.9,125.7-211.1,183.3-47.4,37.3-98.8,31-128.6-9.1-33.1-44.5-26.6-90.4,19.7-130.3,68.1-58.6,136.5-116.7,205.4-174.3,29.3-24.6,62.2-28.5,96.6-10.8,32.3,16.6,44.4,44.9,43.9,78Z"/>
        <path class="cls-1" d="M2881.4,2583.9c-1.7,32.2-15.9,57.1-44.5,72.7-31.5,17.2-63.2,18.8-94.6-.9-31.4-19.8-56.7-46.7-84.5-70.7-48.7-42-98-83.6-145-127.4-27.3-25.5-35.9-58.8-20.6-94.6,14.6-34.3,48.5-53.8,85.7-52.5,19.5.7,35.4,9.3,49.7,21.2,72.3,60.4,144.6,120.9,216.5,181.7,21.5,18.2,38.7,39.6,37.4,70.5Z"/>
        <path class="cls-1" d="M1021.6,2021.2c-49.6,0-99.1.5-148.7-.1-52.7-.7-89.1-35.8-89.3-84.8-.2-49.6,31.4-81.4,85.9-82,102.6-1.2,205.2-1.7,307.7-.2,42.9.6,77,33.6,83.8,73.8,5.6,33.2-15.7,68.6-50.5,86.4-12,6.1-24.1,6.8-36.8,6.8-50.7,0-101.4,0-152.2,0v.2Z"/>
        <path class="cls-1" d="M1005.7,1251.5c-1.1-36.1,14.1-60.6,42.1-76.6,28.7-16.5,57.2-13.2,84.1,5.6,67.1,46.8,125.4,104.2,188.4,156,18.6,15.3,38.1,30.2,54,48.1,31.6,35.6,30.3,80.2-.6,111.7-31.9,32.5-82,38-115.5,9.9-73-61.4-145-124-217.1-186.5-21.4-18.6-38.3-40.1-35.5-68.2Z"/>
        <path class="cls-1" d="M2879.4,1251.7c-3.6,21.5-8.5,42.8-26,58.2-74.2,65.5-147.7,131.9-223.4,195.7-37.4,31.5-92.9,24.7-120.9-9.9-30.6-37.7-26.4-84.9,12.7-119.9,71.2-63.7,143-127,215.3-189.5,28.1-24.3,61.6-24.9,93.6-9.4,29.9,14.5,44.8,41.4,48.8,74.7Z"/>
        <path class="cls-1" d="M2866.8,2020.8c-48.3,0-96.7.4-145-.1-47.5-.5-84.7-38-85.5-85.4-.8-46.3,30.1-79.7,79.9-80.5,100.1-1.6,200.3-1.6,300.4-.6,52.5.5,87.8,35.6,87.3,82.3-.5,44-39.7,82.4-88.6,83.9-49.5,1.4-99,.3-148.5.3h0Z"/>
        <path class="cls-1" d="M2030.1,1015.6c0,40.3.7,80.7-.2,121-1.1,48.8-37.8,86-84.2,87-45,1-86.1-38.1-86.2-85.8-.3-84.1.2-168.2,2.8-252.3,1.7-54.2,35.9-88.8,81.7-88.3,48.1.6,84.8,40.8,85.2,93.9.3,41.5,0,83,0,124.5.3,0,.5,0,.8,0Z"/>
        <path class="cls-1" d="M2081,2785.1c4.5-10.3,13-14.5,20.9-18.9,92.7-51,143.6-133.1,170.8-231.9,7.1-25.8,15.6-24.1,30.5-7.2,16.8,18.9,33.3,38.1,51,56.2,10.5,10.8,6.9,20.5,1.6,31.3-41.4,85.5-83,171-123.8,256.8-6.1,12.9-10.9,14.4-22.6,5.7-42.4-31.2-85.5-61.4-128.4-91.9Z"/>
        <path class="cls-1" d="M1824,2780.2c-47.3,32.6-91.7,62.8-135.7,93.8-11.5,8.1-15.6,2.5-20.4-6.9-45.1-87.9-90.2-175.8-135.9-263.4-5.4-10.4-2.6-16.4,5-23.5,17.7-16.5,35.1-33.3,52.2-50.4,15.1-15.2,19.6-9.3,27,8.3,58.7,139,83.5,167.3,207.8,242.1Z"/>
        <path class="cls-2" d="M1973.7,1617.7c-.4-61.3,50.2-98,98.4-80.3,105.1,38.6,182.8,108.2,230.4,210.3,15.6,33.4,31.6,66.7,36.1,103.7,4.3,35.1-16.3,73.1-46.8,84.9-29.1,11.3-56.2,9.1-78-17-10-12.1-14.5-26.1-17.1-40.8-18.2-104.1-75.9-175.4-176.8-208.5-33.1-10.8-44.2-32.9-46.2-52.3Z"/>
      </g>
    </g>
  </g>
</svg>